<svg width="11" height="13" viewBox="0 0 11 13" fill="none" xmlns="http://www.w3.org/2000/svg">
<path d="M2.38896 11.8256L2.09743 12.5166L2.09743 12.5166L2.38896 11.8256ZM1.17127 10.5853L0.476526 10.8679L0.476526 10.8679L1.17127 10.5853ZM9.82873 10.5853L10.5235 10.8679L10.5235 10.8679L9.82873 10.5853ZM8.61104 11.8256L8.90257 12.5166L8.90257 12.5166L8.61104 11.8256ZM8.61104 5.29944L8.90257 4.60842L8.90257 4.60842L8.61104 5.29944ZM9.82873 6.53968L10.5235 6.25714L10.5235 6.25714L9.82873 6.53968ZM2.38896 5.29944L2.09743 4.60842L2.09743 4.60842L2.38896 5.29944ZM1.17127 6.53968L0.476526 6.25714L0.476526 6.25714L1.17127 6.53968ZM2.5 5.125C2.5 5.53921 2.83579 5.875 3.25 5.875C3.66421 5.875 4 5.53921 4 5.125H3.25H2.5ZM7 5.125C7 5.53921 7.33579 5.875 7.75 5.875C8.16421 5.875 8.5 5.53921 8.5 5.125H7.75H7ZM4.375 5.125V5.875L6.625 5.875V5.125L6.625 4.375L4.375 4.375V5.125ZM6.625 12L6.625 11.25H4.375V12V12.75H6.625V12ZM4.375 12V11.25C3.84037 11.25 3.47764 11.2496 3.19589 11.23C2.92115 11.2109 2.7793 11.1762 2.68049 11.1345L2.38896 11.8256L2.09743 12.5166C2.41211 12.6493 2.73909 12.7019 3.09191 12.7264C3.43771 12.7504 3.86127 12.75 4.375 12.75V12ZM1 8.5625H0.25C0.25 9.08631 0.249608 9.51606 0.273086 9.86653C0.296997 10.2235 0.348068 10.552 0.476526 10.8679L1.17127 10.5853L1.86602 10.3028C1.8232 10.1975 1.78864 10.0485 1.76973 9.76627C1.75039 9.47756 1.75 9.10647 1.75 8.5625H1ZM2.38896 11.8256L2.68049 11.1345C2.3151 10.9804 2.02055 10.6828 1.86602 10.3028L1.17127 10.5853L0.476526 10.8679C0.778715 11.6109 1.3602 12.2056 2.09743 12.5166L2.38896 11.8256ZM10 8.5625H9.25C9.25 9.10647 9.24961 9.47756 9.23027 9.76627C9.21136 10.0485 9.1768 10.1975 9.13398 10.3028L9.82873 10.5853L10.5235 10.8679C10.6519 10.552 10.703 10.2235 10.7269 9.86653C10.7504 9.51606 10.75 9.08631 10.75 8.5625H10ZM6.625 12V12.75C7.13873 12.75 7.56229 12.7504 7.90809 12.7264C8.26091 12.7019 8.58789 12.6493 8.90257 12.5166L8.61104 11.8256L8.31951 11.1345C8.2207 11.1762 8.07885 11.2109 7.80411 11.23C7.52236 11.2496 7.15963 11.25 6.625 11.25L6.625 12ZM9.82873 10.5853L9.13398 10.3028C8.97945 10.6828 8.6849 10.9804 8.31951 11.1345L8.61104 11.8256L8.90257 12.5166C9.6398 12.2056 10.2213 11.6109 10.5235 10.8679L9.82873 10.5853ZM6.625 5.125V5.875C7.15963 5.875 7.52236 5.87542 7.80411 5.895C8.07885 5.91409 8.2207 5.94878 8.31951 5.99046L8.61104 5.29944L8.90257 4.60842C8.58789 4.47567 8.26091 4.42313 7.90809 4.39861C7.56229 4.37458 7.13873 4.375 6.625 4.375L6.625 5.125ZM10 8.5625H10.75C10.75 8.03868 10.7504 7.60894 10.7269 7.25847C10.703 6.90153 10.6519 6.57301 10.5235 6.25714L9.82873 6.53968L9.13398 6.82222C9.1768 6.9275 9.21136 7.0765 9.23027 7.35873C9.24961 7.64744 9.25 8.01853 9.25 8.5625H10ZM8.61104 5.29944L8.31951 5.99046C8.6849 6.14462 8.97945 6.44224 9.13398 6.82223L9.82873 6.53968L10.5235 6.25714C10.2213 5.51409 9.6398 4.91945 8.90257 4.60842L8.61104 5.29944ZM4.375 5.125V4.375C3.86127 4.375 3.43771 4.37458 3.09191 4.39861C2.73909 4.42313 2.41211 4.47567 2.09743 4.60842L2.38896 5.29944L2.68049 5.99046C2.7793 5.94878 2.92115 5.91409 3.19589 5.895C3.47764 5.87542 3.84037 5.875 4.375 5.875V5.125ZM1 8.5625H1.75C1.75 8.01853 1.75039 7.64744 1.76973 7.35873C1.78864 7.0765 1.8232 6.9275 1.86602 6.82222L1.17127 6.53968L0.476526 6.25714C0.348068 6.57301 0.296997 6.90153 0.273086 7.25847C0.249608 7.60894 0.25 8.03868 0.25 8.5625H1ZM2.38896 5.29944L2.09743 4.60842C1.3602 4.91945 0.778714 5.51409 0.476526 6.25714L1.17127 6.53968L1.86602 6.82222C2.02055 6.44224 2.3151 6.14462 2.68049 5.99046L2.38896 5.29944ZM3.25 5.125H4V3.0625H3.25L2.5 3.0625L2.5 5.125H3.25ZM7.75 3.0625H7L7 5.125H7.75H8.5V3.0625H7.75ZM5.5 1V1.75C6.39119 1.75 7 2.39772 7 3.0625H7.75H8.5C8.5 1.4491 7.09409 0.25 5.5 0.25V1ZM3.25 3.0625H4C4 2.39772 4.60881 1.75 5.5 1.75V1V0.25C3.90591 0.25 2.5 1.4491 2.5 3.0625L3.25 3.0625Z" fill="#858BA3"/>
</svg>
